<svg width="414" height="414" viewBox="0 0 414 552" fill="none" xmlns="http://www.w3.org/2000/svg" >
<path d="M79 264.97C79 264.672 78.8673 264.39 78.638 264.2L61.5 250V273L76.9691 286.259C77.1504 286.415 77.3812 286.5 77.6199 286.5H78C78.5523 286.5 79 286.052 79 285.5V264.97Z" fill="#765119"/>
<path d="M38.9229 93.664C38.2599 93.3546 37.5 93.8386 37.5 94.5702V114.9C37.5 115.269 37.7035 115.609 38.0294 115.782L51.0294 122.716C51.6955 123.071 52.5 122.588 52.5 121.833V100.637C52.5 100.248 52.275 99.895 51.9229 99.7307L38.9229 93.664Z" fill="#7B561F"/>
<path d="M61.783 99.2441C61.1939 98.5026 60 98.9192 60 99.8661V120.151C60 120.377 60.0765 120.596 60.217 120.773L87.217 154.756C87.8061 155.497 89 155.081 89 154.134V133.849C89 133.623 88.9235 133.404 88.783 133.227L61.783 99.2441Z" fill="#76531E"/>
<path d="M89 162.014C89 161.187 89.9459 160.718 90.6044 161.217L101.132 169.203C101.895 169.782 101.485 171 100.527 171H90C89.4477 171 89 170.552 89 170V162.014Z" fill="#78531C"/>
<path d="M20.2183 191.273C19.5934 191.133 19 191.608 19 192.248V213.189C19 213.661 19.3312 214.07 19.794 214.167L31 216.526V214.686C31 213.461 32.7775 213.309 32.9855 214.516L33.5 217.5L41 223.5V219.864C41 219.229 41.5845 218.755 42.206 218.885L57 222V199.5L20.2183 191.273Z" fill="#8C5C23"/>
<path d="M31 227.882C31 227.96 31.0093 228.039 31.0276 228.115L34 240.5L33.5 217.5L32.9855 214.516C32.7775 213.309 31 213.461 31 214.686V216.526V227.882Z" fill="#50401A"/>
<path d="M34 240.5L39.3822 244.729C40.0383 245.244 41 244.777 41 243.943V223.5L33.5 217.5L34 240.5Z" fill="#6B4F0E"/>
<path d="M57 199.5V222L61.5 273V250L57 199.5Z" fill="#50401A"/>
<path d="M29.7413 346.923C29.1272 346.245 28 346.68 28 347.595V367.598C28 367.856 28.0996 368.104 28.278 368.29L37.778 378.203C38.4016 378.854 39.5 378.412 39.5 377.511V358.088C39.5 357.84 39.4078 357.601 39.2413 357.417L29.7413 346.923Z" fill="#6B4F0E"/>
<path d="M46 418.89C46 418.639 45.906 418.398 45.7365 418.213L25.2365 395.891C24.6199 395.219 23.5 395.656 23.5 396.567V410.218C23.5 410.503 23.6221 410.775 23.8356 410.965L34 420L34.2083 430L46 442V439.5V418.89Z" fill="#6B4F0E"/>
<path d="M17.5 457.5L34.1118 444.308C34.3564 444.114 34.4962 443.817 34.4897 443.504L34.2083 430L34 420L17.5 435V457.5Z" fill="#A77226"/>
<path d="M1.5 435C0.947715 435 0.5 435.448 0.5 436V456.5C0.5 457.052 0.947715 457.5 1.5 457.5H17.5V435H1.5Z" fill="#926627"/>
<path d="M46 462C46 462.552 46.4477 463 47 463H76V439.5H46V442V462Z" fill="#926628"/>
<path d="M76 463L128 420.5V397L76 439.5V463Z" fill="#AC702E"/>
<path d="M128 397V420.5H134V414V398C134 397.448 133.552 397 133 397H128Z" fill="#94662B"/>
<path d="M147 422L134 414V420.5V436.476C134 436.804 134.161 437.111 134.431 437.298L147 446V422Z" fill="#78501F"/>
<path d="M147 422V446L162.157 432.799C162.375 432.609 162.5 432.334 162.5 432.045V408.5L147 422Z" fill="#A0712A"/>
<path d="M151.574 387.73C151.224 387.895 151 388.247 151 388.635V393.652C151 393.877 151.076 394.096 151.217 394.273L160.517 406L168 402.5V380L151.574 387.73Z" fill="#9F742B"/>
<path d="M178 394.32C178 394.112 177.935 393.909 177.814 393.739L168 380V402.5L178 417.5V403V394.32Z" fill="#784E1F"/>
<path d="M198 391.5L178 403V417.5V425.196C178 425.981 178.864 426.46 179.53 426.044L197.53 414.794C197.822 414.611 198 414.291 198 413.946V396V391.5Z" fill="#A6712D"/>
<path d="M197.593 382.2C197.849 382.389 198 382.688 198 383.005V391.5V396L209 390.5V382.5H234V374V361.883C234 361.201 233.334 360.72 232.687 360.933L190.339 374.894C189.568 375.148 189.405 376.167 190.059 376.649L197.593 382.2Z" fill="#A1702C"/>
<path d="M212.5 397L209 382.5V390.5V406.868C209 406.956 209.012 407.043 209.034 407.128L212.5 420V397Z" fill="#755222"/>
<path d="M234 397H212.5V420H234V397Z" fill="#906823"/>
<path d="M234 420L238.445 407.159C238.481 407.054 238.5 406.943 238.5 406.832V397.5V382.5L234 397V420Z" fill="#906226"/>
<path d="M265.5 374H234V382.5H238.5V397.5H265.5V374Z" fill="#926723"/>
<path d="M275.5 382.5L265.5 374V397.5L275.5 405V382.5Z" fill="#745223"/>
<path d="M301 352L275.5 382.5V405L287 391V381.5L301 371.565V352Z" fill="#A0722C"/>
<path d="M302.5 399L287 381.5V391V404.104C287 404.358 287.097 404.603 287.271 404.789L302.5 421V399Z" fill="#754F1E"/>
<path d="M313 370.5L302.5 399V421L312.922 396.186C312.973 396.063 313 395.932 313 395.799V377.5V370.5Z" fill="#956A26"/>
<path d="M413.5 268.253C413.5 267.116 411.904 266.861 411.55 267.941L392 327.5V350.5L413.448 286.655C413.482 286.552 413.5 286.445 413.5 286.337V268.253Z" fill="#906627"/>
<path d="M392.527 254.196C392.219 254.082 392.032 253.768 392.077 253.443L399.5 200V211L393.466 253.637C393.403 254.081 392.947 254.352 392.527 254.196V254.196Z" fill="#73663A"/>
<path d="M392 327.5L347 360.5V384.5L392 350.5V327.5Z" fill="#A37132"/>
<path d="M347 360.5L301 352V371.565L302.24 370.684C302.409 370.564 302.611 370.5 302.819 370.5H313V377.5L347 384.5V360.5Z" fill="#895F25"/>
<path d="M6.90614 522.625C6.24485 522.331 5.5 522.815 5.5 523.539V545.328C5.5 545.734 5.74617 546.1 6.1227 546.254L19 551.5V528L6.90614 522.625Z" fill="#83571F"/>
<path d="M19 551.5L88.5 538V515L19 528V551.5Z" fill="#9D6C29"/>
<path d="M88.5 538L98.2071 528.293C98.3946 528.105 98.5 527.851 98.5 527.586V507.414C98.5 506.523 97.4229 506.077 96.7929 506.707L88.5 515V538Z" fill="#A6702A"/>
<path d="M57 222V199.5M57 222L61.5 273M57 222L42.206 218.885C41.5845 218.755 41 219.229 41 219.864V223.5M57 199.5L20.2183 191.273C19.5934 191.133 19 191.608 19 192.248V213.189C19 213.661 19.3312 214.07 19.794 214.167L31 216.526M57 199.5L61.5 250M34 240.5L31.0276 228.115C31.0093 228.039 31 227.96 31 227.882V216.526M34 240.5L39.3822 244.729C40.0383 245.244 41 244.777 41 243.943V223.5M34 240.5L33.5 217.5M41 223.5L33.5 217.5M33.5 217.5L32.9855 214.516C32.7775 213.309 31 213.461 31 214.686V216.526M61.5 273V250M61.5 273L76.9691 286.259C77.1504 286.415 77.3812 286.5 77.6199 286.5H78C78.5523 286.5 79 286.052 79 285.5V264.97C79 264.672 78.8673 264.39 78.638 264.2L61.5 250M17.5 457.5H1.5C0.947715 457.5 0.5 457.052 0.5 456.5V436C0.5 435.448 0.947715 435 1.5 435H17.5M17.5 457.5L34.1118 444.308C34.3564 444.114 34.4962 443.817 34.4897 443.504L34.2083 430M17.5 457.5V435M17.5 435L34 420M19 551.5L6.1227 546.254C5.74617 546.1 5.5 545.734 5.5 545.328V523.539C5.5 522.815 6.24485 522.331 6.90614 522.625L19 528M19 551.5L88.5 538M19 551.5V528M88.5 538L98.2071 528.293C98.3946 528.105 98.5 527.851 98.5 527.586V507.414C98.5 506.523 97.4229 506.077 96.7929 506.707L88.5 515M88.5 538V515M88.5 515L19 528M46 439.5V418.89C46 418.639 45.906 418.398 45.7365 418.213L25.2365 395.891C24.6199 395.219 23.5 395.656 23.5 396.567V410.218C23.5 410.503 23.6221 410.775 23.8356 410.965L34 420M46 439.5H76M46 439.5V442M76 463H47C46.4477 463 46 462.552 46 462V442M76 463L128 420.5M76 463V439.5M128 420.5V397M128 420.5H134M128 397L76 439.5M128 397H133C133.552 397 134 397.448 134 398V414M134 414L147 422M134 414V420.5M147 422V446M147 422L162.5 408.5M147 446L134.431 437.298C134.161 437.111 134 436.804 134 436.476V420.5M147 446L162.157 432.799C162.375 432.609 162.5 432.334 162.5 432.045V408.5M162.5 408.5L160.517 406M168 380L151.574 387.73C151.224 387.895 151 388.247 151 388.635V393.652C151 393.877 151.076 394.096 151.217 394.273L160.517 406M168 380L177.814 393.739C177.935 393.909 178 394.112 178 394.32V403M168 380V402.5M178 403L198 391.5M178 403V417.5M198 391.5V383.005C198 382.688 197.849 382.389 197.593 382.2L190.059 376.649C189.405 376.167 189.568 375.148 190.339 374.894L232.687 360.933C233.334 360.72 234 361.201 234 361.883V374M198 391.5V396M234 374H265.5M234 374V382.5M265.5 374L275.5 382.5M265.5 374V397.5M275.5 382.5L301 352M275.5 382.5V405M301 352L347 360.5M301 352V371.565M347 360.5L392 327.5M347 360.5V384.5M392 327.5L411.55 267.941C411.904 266.861 413.5 267.116 413.5 268.253V286.337C413.5 286.445 413.482 286.552 413.448 286.655L392 350.5M392 327.5V350.5M392 350.5L347 384.5M347 384.5L313 377.5M275.5 405L265.5 397.5M275.5 405L287 391M265.5 397.5H238.5M168 402.5L178 417.5M168 402.5L160.517 406M178 417.5V425.196C178 425.981 178.864 426.46 179.53 426.044L197.53 414.794C197.822 414.611 198 414.291 198 413.946V396M209 382.5L212.5 397M209 382.5H234M209 382.5V390.5M212.5 397H234M212.5 397V420M234 397V420M234 397L238.5 382.5M238.5 382.5V397.5M238.5 382.5H234M234 420L238.445 407.159C238.481 407.054 238.5 406.943 238.5 406.832V397.5M234 420H212.5M212.5 420L209.034 407.128C209.012 407.043 209 406.956 209 406.868V390.5M198 396L209 390.5M287 381.5L302.5 399M287 381.5V391M287 381.5L301 371.565M302.5 399L313 370.5M302.5 399V421M313 370.5V377.5M313 370.5H302.819C302.611 370.5 302.409 370.564 302.24 370.684L301 371.565M302.5 421L312.922 396.186C312.973 396.063 313 395.932 313 395.799V377.5M302.5 421L287.271 404.789C287.097 404.603 287 404.358 287 404.104V391M34 420L34.2083 430M34.2083 430L46 442M399.5 200L392.077 253.443C392.032 253.768 392.219 254.082 392.527 254.196V254.196C392.947 254.352 393.403 254.081 393.466 253.637L399.5 211V200ZM90.6044 161.217L101.132 169.203C101.895 169.782 101.485 171 100.527 171H90C89.4477 171 89 170.552 89 170V162.014C89 161.187 89.9459 160.718 90.6044 161.217ZM28 367.598V347.595C28 346.68 29.1272 346.245 29.7413 346.923L39.2413 357.417C39.4078 357.601 39.5 357.84 39.5 358.088V377.511C39.5 378.412 38.4016 378.854 37.778 378.203L28.278 368.29C28.0996 368.104 28 367.856 28 367.598ZM87.217 154.756L60.217 120.773C60.0765 120.596 60 120.377 60 120.151V99.8661C60 98.9192 61.1939 98.5026 61.783 99.2441L88.783 133.227C88.9235 133.404 89 133.623 89 133.849V154.134C89 155.081 87.8061 155.497 87.217 154.756ZM52.5 100.637V121.833C52.5 122.588 51.6955 123.071 51.0294 122.716L38.0294 115.782C37.7035 115.609 37.5 115.269 37.5 114.9V94.5702C37.5 93.8386 38.2599 93.3546 38.9229 93.664L51.9229 99.7307C52.275 99.895 52.5 100.248 52.5 100.637Z" stroke="#654B26" stroke-opacity="0.3" stroke-linecap="square" stroke-linejoin="round"/>
<path d="M268.812 0.825985C269.218 0.633402 269.703 0.736011 269.997 1.07672L378.887 127.369C378.962 127.456 379.021 127.555 379.062 127.661L399.433 180.326C399.477 180.441 399.5 180.563 399.5 180.687V200L392.11 253.205C392.046 253.669 392.313 254.116 392.752 254.28L412.599 261.665C413.102 261.852 413.368 262.403 413.2 262.914L392.1 327.195C392.035 327.393 391.91 327.566 391.741 327.69L347.348 360.245C347.126 360.408 346.846 360.472 346.575 360.422L301.574 352.106C301.219 352.041 300.857 352.171 300.625 352.448L276.147 381.727C275.79 382.153 275.155 382.207 274.732 381.847L265.78 374.238C265.599 374.084 265.37 374 265.132 374H235C234.448 374 234 373.552 234 373V361.883C234 361.201 233.334 360.72 232.687 360.933L190.339 374.894C189.568 375.148 189.405 376.167 190.059 376.649L197.593 382.2C197.849 382.389 198 382.688 198 383.005V390.921C198 391.279 197.809 391.61 197.498 391.788L179.498 402.138C178.832 402.522 178 402.04 178 401.271V394.32C178 394.112 177.935 393.909 177.814 393.739L168.485 380.679C168.204 380.286 167.682 380.149 167.245 380.355L151.574 387.73C151.224 387.895 151 388.247 151 388.635V393.652C151 393.877 151.076 394.096 151.217 394.273L161.907 407.752C162.239 408.17 162.183 408.776 161.78 409.127L147.555 421.517C147.225 421.804 146.746 421.844 146.374 421.615L134.476 414.293C134.18 414.111 134 413.788 134 413.441V398C134 397.448 133.552 397 133 397H128.357C128.126 397 127.902 397.08 127.724 397.226L76.2762 439.274C76.0976 439.42 75.874 439.5 75.6433 439.5H47C46.4477 439.5 46 439.052 46 438.5V418.89C46 418.639 45.906 418.398 45.7365 418.213L24.4216 395.004C23.9648 394.506 24.1222 393.708 24.7337 393.422L38.9244 386.77C39.2757 386.605 39.5 386.252 39.5 385.864V357.89C39.5 357.639 39.4057 357.398 39.2359 357.213L28.5679 345.617C28.2394 345.26 28.2146 344.719 28.5091 344.333L48.7948 317.769C48.9279 317.594 49 317.381 49 317.162V304.906C49 304.646 49.1015 304.396 49.283 304.209L66.2055 286.803C66.3938 286.609 66.6524 286.5 66.9225 286.5H78C78.5523 286.5 79 286.052 79 285.5V264.97C79 264.672 78.8673 264.39 78.638 264.2L61.821 250.266C61.6156 250.096 61.4867 249.85 61.463 249.585L57.0648 200.228C57.0262 199.794 56.7117 199.436 56.2871 199.341L19.7817 191.175C19.3248 191.073 19 190.667 19 190.199V173.839C19 173.354 19.3481 172.938 19.8257 172.854L75.0935 163.072C75.3539 163.026 75.6218 163.085 75.8389 163.236L86.7426 170.821C86.9102 170.938 87.1094 171 87.3136 171H100.527C101.485 171 101.895 169.782 101.132 169.203L89.3956 160.3C89.1464 160.111 89 159.816 89 159.503V133.849C89 133.623 88.9235 133.404 88.783 133.227L60.217 97.2732C60.0765 97.0963 60 96.877 60 96.6511V83.5C60 82.9477 60.4477 82.5 61 82.5H76.5C77.0523 82.5 77.5 82.0523 77.5 81.5V64C77.5 63.4477 77.9477 63 78.5 63H90.6346C90.8706 63 91.0989 62.9166 91.2793 62.7644L132.221 28.2356C132.401 28.0834 132.629 28 132.865 28H254.677C255.155 28 255.566 27.6614 255.658 27.192L259.903 5.49556C259.964 5.18393 260.169 4.91977 260.456 4.78383L268.812 0.825985Z" fill="#91C10B"/>
<path d="M81.2609 491.539C81.418 491.513 81.579 491.526 81.7306 491.575L97.8078 496.776C98.2205 496.91 98.5 497.294 98.5 497.728V504.586C98.5 504.851 98.3946 505.105 98.2071 505.293L88.7184 514.782C88.5761 514.924 88.3942 515.02 88.1965 515.057L19.7992 527.944C19.6042 527.98 19.4026 527.958 19.2201 527.88L6.10608 522.26C5.7384 522.102 5.5 521.741 5.5 521.341V515.574C5.5 515.219 5.68891 514.89 5.99613 514.711L17.0039 508.289C17.3111 508.11 17.5 507.781 17.5 507.426V502.849C17.5 502.359 17.8548 501.942 18.3381 501.862L81.2609 491.539Z" fill="#91C10B"/>
<path d="M19.8467 408.86C20.199 408.396 20.872 408.331 21.3075 408.718L33.1686 419.261C33.6127 419.656 33.6166 420.349 33.1769 420.748L17.7861 434.74C17.602 434.907 17.3622 435 17.1134 435H2.01484C1.18807 435 0.718438 434.054 1.21839 433.395L19.8467 408.86Z" fill="#91C10B"/>
<path d="M209.298 383.735C209.146 383.105 209.623 382.5 210.27 382.5H237.143C237.816 382.5 238.297 383.153 238.098 383.796L234.218 396.296C234.089 396.715 233.701 397 233.263 397H213.287C212.825 397 212.424 396.684 212.315 396.235L209.298 383.735Z" fill="#91C10B"/>
<path d="M302.24 370.684C302.409 370.564 302.611 370.5 302.819 370.5H311.566C312.262 370.5 312.745 371.193 312.504 371.846L303.078 397.431C302.817 398.14 301.893 398.314 301.391 397.748L287.739 382.334C287.344 381.889 287.423 381.2 287.908 380.855L302.24 370.684Z" fill="#91C10B"/>
<path d="M31.2476 204.436C31.1283 203.744 31.7407 203.148 32.4292 203.286L40.1961 204.839C40.6635 204.933 41 205.343 41 205.82V221.419C41 222.258 40.0301 222.724 39.3753 222.2L33.7963 217.737C33.6054 217.584 33.4771 217.367 33.4355 217.126L31.2476 204.436Z" fill="#91C10B"/>
<path d="M37.5 81.477C37.5 80.7696 38.2145 80.2858 38.8714 80.5486L51.8714 85.7486C52.251 85.9004 52.5 86.2681 52.5 86.677V98.4298C52.5 99.1614 51.7401 99.6454 51.0771 99.336L38.0771 93.2693C37.725 93.105 37.5 92.7517 37.5 92.3631V81.477Z" fill="#91C10B"/>
<path d="M268.812 0.825985C269.218 0.633402 269.703 0.736011 269.997 1.07672L378.887 127.369C378.962 127.456 379.021 127.555 379.062 127.661L399.433 180.326C399.477 180.441 399.5 180.563 399.5 180.687V200L392.11 253.205C392.046 253.669 392.313 254.116 392.752 254.28L412.599 261.665C413.102 261.852 413.368 262.403 413.2 262.914L392.1 327.195C392.035 327.393 391.91 327.566 391.741 327.69L347.348 360.245C347.126 360.408 346.846 360.472 346.575 360.422L301.574 352.106C301.219 352.041 300.857 352.171 300.625 352.448L276.147 381.727C275.79 382.153 275.155 382.207 274.732 381.847L265.78 374.238C265.599 374.084 265.37 374 265.132 374H235C234.448 374 234 373.552 234 373V361.883C234 361.201 233.334 360.72 232.687 360.933L190.339 374.894C189.568 375.148 189.405 376.167 190.059 376.649L197.593 382.2C197.849 382.389 198 382.688 198 383.005V390.921C198 391.279 197.809 391.61 197.498 391.788L179.498 402.138C178.832 402.522 178 402.04 178 401.271V394.32C178 394.112 177.935 393.909 177.814 393.739L168.485 380.679C168.204 380.286 167.682 380.149 167.245 380.355L151.574 387.73C151.224 387.895 151 388.247 151 388.635V393.652C151 393.877 151.076 394.096 151.217 394.273L161.907 407.752C162.239 408.17 162.183 408.776 161.78 409.127L147.555 421.517C147.225 421.804 146.746 421.844 146.374 421.615L134.476 414.293C134.18 414.111 134 413.788 134 413.441V398C134 397.448 133.552 397 133 397H128.357C128.126 397 127.902 397.08 127.724 397.226L76.2762 439.274C76.0976 439.42 75.874 439.5 75.6433 439.5H47C46.4477 439.5 46 439.052 46 438.5V418.89C46 418.639 45.906 418.398 45.7365 418.213L24.4216 395.004C23.9648 394.506 24.1222 393.708 24.7337 393.422L38.9244 386.77C39.2757 386.605 39.5 386.252 39.5 385.864V357.89C39.5 357.639 39.4057 357.398 39.2359 357.213L28.5679 345.617C28.2394 345.26 28.2146 344.719 28.5091 344.333L48.7948 317.769C48.9279 317.594 49 317.381 49 317.162V304.906C49 304.646 49.1015 304.396 49.283 304.209L66.2055 286.803C66.3938 286.609 66.6524 286.5 66.9225 286.5H78C78.5523 286.5 79 286.052 79 285.5V264.97C79 264.672 78.8673 264.39 78.638 264.2L61.821 250.266C61.6156 250.096 61.4867 249.85 61.463 249.585L57.0648 200.228C57.0262 199.794 56.7117 199.436 56.2871 199.341L19.7817 191.175C19.3248 191.073 19 190.667 19 190.199V173.839C19 173.354 19.3481 172.938 19.8257 172.854L75.0935 163.072C75.3539 163.026 75.6218 163.085 75.8389 163.236L86.7426 170.821C86.9102 170.938 87.1094 171 87.3136 171H100.527C101.485 171 101.895 169.782 101.132 169.203L89.3956 160.3C89.1464 160.111 89 159.816 89 159.503V133.849C89 133.623 88.9235 133.404 88.783 133.227L60.217 97.2732C60.0765 97.0963 60 96.877 60 96.6511V83.5C60 82.9477 60.4477 82.5 61 82.5H76.5C77.0523 82.5 77.5 82.0523 77.5 81.5V64C77.5 63.4477 77.9477 63 78.5 63H90.6346C90.8706 63 91.0989 62.9166 91.2793 62.7644L132.221 28.2356C132.401 28.0834 132.629 28 132.865 28H254.677C255.155 28 255.566 27.6614 255.658 27.192L259.903 5.49556C259.964 5.18393 260.169 4.91977 260.456 4.78383L268.812 0.825985Z" stroke="#819677" stroke-opacity="0.8" stroke-linecap="square" stroke-linejoin="round"/>
<path d="M81.2609 491.539C81.418 491.513 81.579 491.526 81.7306 491.575L97.8078 496.776C98.2205 496.91 98.5 497.294 98.5 497.728V504.586C98.5 504.851 98.3946 505.105 98.2071 505.293L88.7184 514.782C88.5761 514.924 88.3942 515.02 88.1965 515.057L19.7992 527.944C19.6042 527.98 19.4026 527.958 19.2201 527.88L6.10608 522.26C5.7384 522.102 5.5 521.741 5.5 521.341V515.574C5.5 515.219 5.68891 514.89 5.99613 514.711L17.0039 508.289C17.3111 508.11 17.5 507.781 17.5 507.426V502.849C17.5 502.359 17.8548 501.942 18.3381 501.862L81.2609 491.539Z" stroke="#819677" stroke-opacity="0.8" stroke-linecap="square" stroke-linejoin="round"/>
<path d="M19.8467 408.86C20.199 408.396 20.872 408.331 21.3075 408.718L33.1686 419.261C33.6127 419.656 33.6166 420.349 33.1769 420.748L17.7861 434.74C17.602 434.907 17.3622 435 17.1134 435H2.01484C1.18807 435 0.718438 434.054 1.21839 433.395L19.8467 408.86Z" stroke="#819677" stroke-opacity="0.8" stroke-linecap="square" stroke-linejoin="round"/>
<path d="M209.298 383.735C209.146 383.105 209.623 382.5 210.27 382.5H237.143C237.816 382.5 238.297 383.153 238.098 383.796L234.218 396.296C234.089 396.715 233.701 397 233.263 397H213.287C212.825 397 212.424 396.684 212.315 396.235L209.298 383.735Z" stroke="#819677" stroke-opacity="0.8" stroke-linecap="square" stroke-linejoin="round"/>
<path d="M302.24 370.684C302.409 370.564 302.611 370.5 302.819 370.5H311.566C312.262 370.5 312.745 371.193 312.504 371.846L303.078 397.431C302.817 398.14 301.893 398.314 301.391 397.748L287.739 382.334C287.344 381.889 287.423 381.2 287.908 380.855L302.24 370.684Z" stroke="#819677" stroke-opacity="0.8" stroke-linecap="square" stroke-linejoin="round"/>
<path d="M31.2476 204.436C31.1283 203.744 31.7407 203.148 32.4292 203.286L40.1961 204.839C40.6635 204.933 41 205.343 41 205.82V221.419C41 222.258 40.0301 222.724 39.3753 222.2L33.7963 217.737C33.6054 217.584 33.4771 217.367 33.4355 217.126L31.2476 204.436Z" stroke="#819677" stroke-opacity="0.8" stroke-linecap="square" stroke-linejoin="round"/>
<path d="M37.5 81.477C37.5 80.7696 38.2145 80.2858 38.8714 80.5486L51.8714 85.7486C52.251 85.9004 52.5 86.2681 52.5 86.677V98.4298C52.5 99.1614 51.7401 99.6454 51.0771 99.336L38.0771 93.2693C37.725 93.105 37.5 92.7517 37.5 92.3631V81.477Z" stroke="#819677" stroke-opacity="0.8" stroke-linecap="square" stroke-linejoin="round"/>
</svg>
